<svg xmlns="http://www.w3.org/2000/svg" xmlns:xlink="http://www.w3.org/1999/xlink" width="512" height="512" viewBox="0 0 512 512">
  <defs>
    <linearGradient id="linear-gradient" x1="0.5" x2="0.5" y2="1" gradientUnits="objectBoundingBox">
      <stop offset="0" stop-color="#1cb1b4"/>
      <stop offset="1" stop-color="#fff" stop-opacity="0.102"/>
    </linearGradient>
    <clipPath id="clip-Floki_Logo">
      <rect width="512" height="512"/>
    </clipPath>
  </defs>
  <g id="Floki_Logo" clip-path="url(#clip-Floki_Logo)">
    <g id="Floki" transform="translate(-326 -260)">
      <g id="React_Floki" data-name="React Floki" transform="translate(494.881 706.711)">
        <path id="Path_10" data-name="Path 10" d="M2.072.545V-19.877H11.1a5.8,5.8,0,0,1,2.6.59,6.734,6.734,0,0,1,2.057,1.553,7.329,7.329,0,0,1,1.352,2.186,6.575,6.575,0,0,1,.489,2.459,6.791,6.791,0,0,1-.992,3.61,5.7,5.7,0,0,1-2.689,2.344l4.66,7.68H14.124L9.953-6.3H6.041V.545ZM6.041-9.781h4.976a2.1,2.1,0,0,0,1.021-.259,2.612,2.612,0,0,0,.82-.7,3.513,3.513,0,0,0,.547-1.05,4.068,4.068,0,0,0,.2-1.294,3.688,3.688,0,0,0-.23-1.323,3.452,3.452,0,0,0-.618-1.05,2.8,2.8,0,0,0-.892-.69,2.315,2.315,0,0,0-1.021-.244h-4.8ZM35.38-2.935V.545H21.2V-19.877H35.121v3.48H25.169v4.918h8.6v3.221h-8.6v5.321ZM44.3-19.877h3.509L55.571.545H51.487l-1.9-5.091H42.455L40.586.545H36.5ZM48.87-7.336l-2.819-8.025L43.117-7.336ZM55.83-9.81a10.577,10.577,0,0,1,.676-3.7,10.049,10.049,0,0,1,1.97-3.265A9.976,9.976,0,0,1,61.64-19.1a9.772,9.772,0,0,1,4.257-.892,9.282,9.282,0,0,1,4.875,1.237,7.9,7.9,0,0,1,3.063,3.221l-3.049,2.1a5.214,5.214,0,0,0-.978-1.453,4.892,4.892,0,0,0-1.237-.935,5.552,5.552,0,0,0-1.381-.5,6.548,6.548,0,0,0-1.409-.158,5.354,5.354,0,0,0-2.6.6,5.727,5.727,0,0,0-1.841,1.568,6.913,6.913,0,0,0-1.107,2.186,8.274,8.274,0,0,0-.374,2.43,7.929,7.929,0,0,0,.431,2.6,6.928,6.928,0,0,0,1.222,2.2,6.114,6.114,0,0,0,1.9,1.524,5.193,5.193,0,0,0,2.43.575,6.393,6.393,0,0,0,1.438-.173A5.467,5.467,0,0,0,68.7-3.511a5.394,5.394,0,0,0,1.251-.964,4.447,4.447,0,0,0,.92-1.424l3.25,1.87A6.139,6.139,0,0,1,72.729-2,8.976,8.976,0,0,1,70.686-.519a10.431,10.431,0,0,1-2.43.92,10.638,10.638,0,0,1-2.531.316,8.7,8.7,0,0,1-4-.92,10.411,10.411,0,0,1-3.121-2.4A11.145,11.145,0,0,1,56.564-5.97,10.5,10.5,0,0,1,55.83-9.81ZM91.871-16.4H85.341V.545H81.4V-16.4H74.871v-3.48h17ZM100.5.545V-19.877h13.72v3.48h-9.751v5.264h8.111v3.221h-8.111V.545Zm16.51,0V-19.877h3.969V-2.935h10.412V.545Zm36.731,0V-19.848h3.969v9.693l8.571-9.722h4.372l-7.824,9.06L171.142.545h-4.458l-6.357-8.83-2.617,2.732v6.1Zm19.243,0V-19.877h3.969V.545Z" transform="translate(-2.072 21.028)" fill="#1cb1b4"/>
        <g id="Letter_o_" data-name="Letter &apos;o&apos;" transform="translate(131.271 0)">
          <g id="Path_7" data-name="Path 7" transform="translate(9.136 0) rotate(45)" fill="none">
            <path d="M0,0H10.642V10.642H0Z" stroke="none"/>
            <path d="M 2.999996662139893 2.999996662139893 L 2.999996662139893 7.642336845397949 L 7.642336845397949 7.642336845397949 L 7.642336845397949 2.999996662139893 L 2.999996662139893 2.999996662139893 M -3.814697265625e-06 -3.814697265625e-06 L 10.64233684539795 -3.814697265625e-06 L 10.64233684539795 10.64233684539795 L -3.814697265625e-06 10.64233684539795 L -3.814697265625e-06 -3.814697265625e-06 Z" stroke="none" fill="#1cb1b4"/>
          </g>
          <g id="Path_8" data-name="Path 8" transform="translate(3.526 5.61) rotate(45)" fill="none">
            <path d="M2.758,0,17.97.029l2.758,2.758L0,2.816Z" stroke="none"/>
            <path d="M 2.7579345703125 3.099441528320313e-06 L 17.97025299072266 0.0291132926940918 L 20.72818374633789 2.787053108215332 L 3.814697265625e-06 2.816163301467896 L 2.7579345703125 3.099441528320313e-06 Z" stroke="none" fill="#1cb1b4"/>
          </g>
          <g id="Path_9" data-name="Path 9" transform="translate(14.69 5.555) rotate(45)" fill="none">
            <path d="M0,0H2.787L2.759,20.775,0,18.016Z" stroke="none"/>
            <path d="M -4.76837158203125e-06 1.9073486328125e-06 L 2.787275314331055 1.9073486328125e-06 L 2.758735179901123 20.77454376220703 L -4.76837158203125e-06 18.01580238342285 L -4.76837158203125e-06 1.9073486328125e-06 Z" stroke="none" fill="#1cb1b4"/>
          </g>
        </g>
      </g>
      <g id="Logo" transform="translate(389 303)">
        <g id="Rings">
          <g id="Ellipse_2" data-name="Ellipse 2" transform="translate(385.775 126.652) rotate(90)" fill="none" stroke="#1cb1b4" stroke-width="5">
            <ellipse cx="81.216" cy="192.888" rx="81.216" ry="192.888" stroke="none"/>
            <ellipse cx="81.216" cy="192.888" rx="78.716" ry="190.388" fill="none"/>
          </g>
          <g id="Ellipse_3" data-name="Ellipse 3" transform="translate(219.494 0) rotate(30)" fill="none" stroke="#aadddf" stroke-width="5">
            <ellipse cx="80.875" cy="193.022" rx="80.875" ry="193.022" stroke="none"/>
            <ellipse cx="80.875" cy="193.022" rx="78.375" ry="190.522" fill="none"/>
          </g>
          <g id="Ellipse_4" data-name="Ellipse 4" transform="translate(359.574 334.325) rotate(150)" fill="none" stroke="#6fc8ca" stroke-width="5">
            <ellipse cx="80.875" cy="193.022" rx="80.875" ry="193.022" stroke="none"/>
            <ellipse cx="80.875" cy="193.022" rx="78.375" ry="190.522" fill="none"/>
          </g>
        </g>
        <g id="Axe" transform="translate(160.616 24.654)">
          <path id="Path_11" data-name="Path 11" d="M5,0H32a5,5,0,0,1,5,5V292.885h0s-19.446,20.641-20,20.641h0L-3,292.885h0L0,5A5,5,0,0,1,5,0Z" transform="translate(15.384 0.346)" fill="#1cb1b4"/>
          <path id="Union_1" data-name="Union 1" d="M134.7,90.762c-4.258,0-8.834-4.846-8.834-9.784L116.115,34.9l-.231-1.559-.068-.01c-4.1-.613-7.659-1.839-9.888-3.9-8.513-7.864-30.084-4.342-40.4-2.072V43.034a10,10,0,0,1-10,10H10a10,10,0,0,1-10-10v-24.7a10,10,0,0,1,10-10H55.526a10.045,10.045,0,0,1,2.029.206,16.91,16.91,0,0,1,2.3-.155h58.672C120.192,3.658,131.545,0,145.3,0c13.235,0,24.033,6.217,26.281,11.315a2.964,2.964,0,0,1,.71,1.86v10.78q0,.118-.011.235V90.762c0,4.939-3.451,8.942-7.708,8.942Z" transform="translate(0 2.973)" fill="#1cb1b4"/>
        </g>
        <g id="Detail" transform="translate(160.616 24.654)">
          <path id="Path_12" data-name="Path 12" d="M5,0H32a5,5,0,0,1,5,5l-.031,287.779c0,2.761-17.133,19.895-19.895,19.895h0c-2.761,0-20.307-18.893-20.307-21.655L0,5A5,5,0,0,1,5,0Z" transform="translate(15.384 0.346)" fill="url(#linear-gradient)"/>
          <path id="Union_1-2" data-name="Union 1" d="M134.7,90.762c-4.258,0-8.834-4.846-8.834-9.784L116.115,34.9l-.231-1.56-.068-.01c-4.1-.615-7.659-1.843-9.888-3.907-8.513-7.879-30.084-4.351-40.4-2.076V43.034a10,10,0,0,1-10,10H10a10,10,0,0,1-10-10v-24.7a10,10,0,0,1,10-10H55.526a10.058,10.058,0,0,1,1.882.177,16.821,16.821,0,0,1,2.452-.177h58.69C120.273,3.632,131.594,0,145.3,0,158.453,0,169.2,6.135,171.54,11.215a3,3,0,0,1,.756,1.919v10.8q0,.118-.011.236V90.762c0,4.939-3.451,8.942-7.708,8.942Z" transform="translate(0 2.973)" fill="url(#linear-gradient)"/>
        </g>
      </g>
    </g>
  </g>
</svg>
